<?xml version="1.0" encoding="UTF-8"?><svg id="Layer_2" xmlns="http://www.w3.org/2000/svg" viewBox="0 0 165.78 165.78"><defs><style>.cls-1{fill:#fff;}.cls-2{fill:#423304;}.cls-3{fill:#f6c52a;}.cls-4{fill:none;}.cls-5{fill:#03638d;}.cls-6{fill:#03567a;}</style></defs><g id="Layer_1-2"><rect class="cls-4" width="165.78" height="165.78"/><path class="cls-1" d="m23.72,65.11h-3.76l-.63,3.15h-2l-.58,2.89h2l-1.04,5.23c-.19.98-.15,1.83.13,2.54.28.71.75,1.26,1.41,1.64.66.38,1.45.57,2.38.57.56,0,1.12-.06,1.69-.17.56-.11,1.08-.31,1.54-.6l-.55-2.67c-.22.14-.47.26-.73.34-.26.08-.53.12-.78.12-.56,0-.95-.16-1.16-.48-.21-.32-.26-.75-.17-1.3l1.04-5.2h3.23l.58-2.89h-3.23l.63-3.15Z"/><path class="cls-1" d="m39.76,68.47c-.77-.46-1.7-.69-2.79-.69-1.03,0-2,.22-2.93.66-.39.19-.75.43-1.08.7l1.21-6.08h-3.76l-3.56,17.87h3.76l1.3-6.57c.24-1.12.68-1.96,1.31-2.5.63-.55,1.42-.82,2.37-.82s1.54.26,1.89.77c.35.51.42,1.24.23,2.19l-1.4,6.94h3.76l1.44-7.18c.26-1.3.22-2.39-.11-3.27-.33-.88-.88-1.55-1.65-2.01Z"/><path class="cls-1" d="m54.72,68.49c-.92-.47-2.01-.71-3.27-.71-1.49,0-2.81.33-3.96.99-1.15.66-2.05,1.55-2.7,2.68-.65,1.13-.98,2.42-.98,3.86,0,1.17.27,2.19.82,3.06.55.87,1.31,1.54,2.3,2.02.99.48,2.16.72,3.5.72.98,0,1.94-.14,2.88-.42.94-.28,1.79-.72,2.54-1.31l-1.57-2.48c-.43.39-.96.68-1.57.89-.61.21-1.24.31-1.9.31-1.12,0-1.96-.24-2.52-.73-.49-.43-.75-1.08-.81-1.91h9.9c.06-.3.12-.63.16-.96.04-.34.06-.67.06-1.01,0-1.17-.25-2.18-.76-3.02-.51-.84-1.22-1.5-2.13-1.97Zm-5.53,2.7c.57-.39,1.26-.59,2.08-.59.66,0,1.22.13,1.69.4.47.26.8.64,1.01,1.13.14.33.2.71.19,1.14h-6.39c.05-.15.08-.31.14-.46.29-.69.72-1.23,1.29-1.63Z"/><path class="cls-1" d="m64.59,71.43c.58-.36,1.24-.54,1.97-.54.67,0,1.26.14,1.75.42.49.28.87.73,1.14,1.34l3.18-1.59c-.48-1.04-1.23-1.85-2.24-2.42-1.01-.57-2.21-.85-3.59-.85-1.54,0-2.91.33-4.09.99-1.19.66-2.12,1.55-2.79,2.68-.67,1.13-1.01,2.42-1.01,3.86,0,1.17.27,2.19.82,3.06.55.87,1.31,1.54,2.3,2.02.99.48,2.15.72,3.48.72s2.54-.27,3.62-.82c1.08-.55,1.93-1.31,2.54-2.29l-2.77-1.73c-.37.59-.83,1.03-1.37,1.31-.55.28-1.15.42-1.81.42-.96,0-1.71-.26-2.23-.78-.52-.52-.78-1.22-.78-2.11,0-.83.17-1.57.51-2.2.34-.63.79-1.13,1.37-1.49Z"/><path class="cls-1" d="m84.25,68.5c-.97-.48-2.12-.72-3.46-.72-1.51,0-2.85.33-4.03.99-1.18.66-2.11,1.55-2.78,2.68-.67,1.13-1.01,2.42-1.01,3.86,0,1.17.27,2.19.81,3.06.54.87,1.3,1.54,2.28,2.02.98.48,2.13.72,3.44.72,1.52,0,2.87-.33,4.05-.99,1.17-.66,2.09-1.56,2.77-2.7.67-1.14,1.01-2.42,1.01-3.85,0-1.19-.27-2.21-.81-3.07-.54-.86-1.29-1.53-2.26-2.01Zm-1.22,7.49c-.32.64-.77,1.14-1.34,1.51-.57.36-1.22.54-1.96.54-.95,0-1.68-.26-2.19-.78-.51-.52-.77-1.22-.77-2.11s.16-1.6.49-2.24c.33-.64.78-1.14,1.35-1.5.57-.36,1.22-.54,1.96-.54.93,0,1.65.26,2.17.79.51.53.77,1.23.77,2.09s-.16,1.6-.48,2.24Z"/><polygon class="cls-1" points="92.04 63.06 88.48 80.93 92.23 80.93 95.8 63.06 92.04 63.06"/><polygon class="cls-1" points="95.72 80.93 99.48 80.93 103.04 63.06 99.29 63.06 95.72 80.93"/><path class="cls-1" d="m114.15,68.49c-.92-.47-2.01-.71-3.27-.71-1.49,0-2.81.33-3.96.99-1.15.66-2.05,1.55-2.7,2.68-.65,1.13-.98,2.42-.98,3.86,0,1.17.27,2.19.82,3.06.55.87,1.31,1.54,2.3,2.02.99.48,2.16.72,3.5.72.98,0,1.94-.14,2.88-.42.94-.28,1.79-.72,2.54-1.31l-1.57-2.48c-.43.39-.96.68-1.57.89-.61.21-1.24.31-1.9.31-1.12,0-1.96-.24-2.52-.73-.49-.43-.75-1.08-.81-1.91h9.9c.06-.3.12-.63.16-.96.04-.34.06-.67.06-1.01,0-1.17-.25-2.18-.76-3.02-.51-.84-1.22-1.5-2.13-1.97Zm-5.53,2.7c.57-.39,1.26-.59,2.08-.59.66,0,1.22.13,1.69.4.47.26.8.64,1.01,1.13.14.33.2.71.19,1.14h-6.39c.05-.15.08-.31.14-.46.29-.69.72-1.23,1.29-1.63Z"/><path class="cls-1" d="m130.05,70.07s-.01-.04-.02-.05c-.43-.79-1.02-1.36-1.79-1.71-.77-.35-1.63-.53-2.58-.53-1.04,0-2,.18-2.88.54-.88.36-1.64.87-2.29,1.52-.65.65-1.16,1.4-1.52,2.25-.36.85-.54,1.77-.54,2.77,0,1.14.26,2.12.77,2.93.51.81,1.2,1.43,2.07,1.87.87.43,1.83.65,2.89.65,1.25,0,2.33-.3,3.24-.89.26-.17.5-.36.73-.57l-.11.57c-.23,1.11-.66,1.94-1.31,2.5-.65.56-1.63.84-2.93.84-.9,0-1.75-.13-2.56-.39-.81-.26-1.47-.59-1.99-1.01l-1.78,2.72c.75.56,1.66.99,2.71,1.28,1.05.29,2.2.43,3.46.43,2.25,0,4.07-.55,5.45-1.65,1.39-1.1,2.33-2.89,2.83-5.38l2.14-10.79h-3.59l-.4,2.1Zm-2.92,6.66c-.56.32-1.21.48-1.95.48-.92,0-1.64-.23-2.17-.69-.53-.46-.79-1.08-.79-1.87,0-.74.16-1.39.49-1.96.33-.57.78-1.02,1.35-1.34.57-.32,1.22-.48,1.96-.48.92,0,1.63.23,2.14.69.51.46.77,1.08.77,1.87,0,.74-.16,1.39-.48,1.96-.32.57-.76,1.02-1.32,1.34Z"/><path class="cls-1" d="m148.26,70.47c-.51-.84-1.22-1.5-2.13-1.97-.92-.47-2.01-.71-3.27-.71-1.49,0-2.81.33-3.96.99-1.15.66-2.05,1.55-2.7,2.68-.65,1.13-.98,2.42-.98,3.86,0,1.17.27,2.19.82,3.06.55.87,1.31,1.54,2.3,2.02.99.48,2.16.72,3.5.72.98,0,1.94-.14,2.88-.42.94-.28,1.79-.72,2.54-1.31l-1.57-2.48c-.43.39-.96.68-1.57.89-.61.21-1.24.31-1.9.31-1.12,0-1.96-.24-2.52-.73-.49-.43-.75-1.08-.81-1.91h9.9c.06-.3.12-.63.16-.96.04-.34.06-.67.06-1.01,0-1.17-.25-2.18-.76-3.02Zm-7.66.72c.57-.39,1.26-.59,2.08-.59.66,0,1.22.13,1.69.4.47.26.8.64,1.01,1.13.14.33.2.71.19,1.14h-6.39c.05-.15.08-.31.14-.46.29-.69.72-1.23,1.29-1.63Z"/><path class="cls-5" d="m42.16,89.32c-.57.25-1.06.64-1.5,1.12l.32-1.56h-3.56l-2.58,12.96h3.76l1.25-6.26c.24-1.22.71-2.1,1.41-2.65.7-.55,1.6-.82,2.71-.82.14,0,.28,0,.42.01.14,0,.28.02.45.04l.67-3.47c-1.3,0-2.42.21-3.35.63Z"/><path class="cls-5" d="m56.17,89.4c-.92-.47-2.01-.71-3.27-.71-1.49,0-2.81.33-3.96.99-1.15.66-2.05,1.55-2.7,2.68-.65,1.13-.98,2.42-.98,3.86,0,1.17.27,2.19.82,3.06.55.87,1.31,1.54,2.3,2.02.99.48,2.16.72,3.5.72.98,0,1.94-.14,2.88-.42.94-.28,1.79-.72,2.54-1.31l-1.57-2.48c-.43.39-.96.68-1.57.89-.61.21-1.24.31-1.9.31-1.12,0-1.96-.24-2.52-.73-.49-.43-.75-1.08-.81-1.91h9.9c.06-.3.12-.63.16-.96.04-.34.06-.67.06-1.01,0-1.17-.25-2.18-.76-3.02-.51-.84-1.22-1.5-2.13-1.97Zm-5.53,2.7c.57-.39,1.26-.59,2.08-.59.66,0,1.22.13,1.69.4.47.26.8.64,1.01,1.13.14.33.2.71.19,1.14h-6.39c.05-.15.08-.31.14-.46.29-.69.72-1.23,1.29-1.63Z"/><polygon class="cls-5" points="71.56 88.89 66.13 97.71 64.24 88.89 60.53 88.89 63.4 101.84 67.27 101.84 75.32 88.89 71.56 88.89"/><polygon class="cls-5" points="74.28 101.84 78.01 101.84 80.59 88.89 76.86 88.89 74.28 101.84"/><path class="cls-5" d="m81.25,83.43c-.41-.36-.94-.54-1.6-.54-.74,0-1.34.21-1.79.64-.46.43-.69.96-.69,1.6,0,.55.2,1.01.6,1.38.4.38.93.57,1.59.57.75,0,1.36-.21,1.82-.64.46-.43.69-.98.69-1.67,0-.53-.2-.98-.61-1.34Z"/><path class="cls-5" d="m92.68,89.4c-.92-.47-2.01-.71-3.27-.71-1.49,0-2.81.33-3.96.99-1.15.66-2.05,1.55-2.7,2.68-.65,1.13-.98,2.42-.98,3.86,0,1.17.27,2.19.82,3.06.55.87,1.31,1.54,2.3,2.02.99.48,2.16.72,3.5.72.98,0,1.94-.14,2.88-.42.94-.28,1.79-.72,2.54-1.31l-1.57-2.48c-.43.39-.96.68-1.57.89-.61.21-1.24.31-1.9.31-1.12,0-1.96-.24-2.52-.73-.49-.43-.75-1.08-.81-1.91h9.9c.06-.3.12-.63.16-.96.04-.34.06-.67.06-1.01,0-1.17-.25-2.18-.76-3.02-.51-.84-1.22-1.5-2.13-1.97Zm-5.53,2.7c.57-.39,1.26-.59,2.08-.59.66,0,1.22.13,1.69.4.47.26.8.64,1.01,1.13.14.33.2.71.19,1.14h-6.39c.05-.15.08-.31.14-.46.29-.69.72-1.23,1.29-1.63Z"/><polygon class="cls-5" points="116.4 88.89 111.58 97.6 110.11 88.89 106.89 88.89 102.03 97.6 100.6 88.89 97.18 88.89 99.47 101.84 103.13 101.84 107.6 93.78 109.08 101.84 112.79 101.84 119.94 88.89 116.4 88.89"/><path class="cls-5" d="m128.34,94.8c-.51-.23-1.07-.41-1.66-.53-.59-.12-1.15-.23-1.66-.34-.51-.1-.94-.24-1.26-.41-.33-.17-.49-.41-.49-.71,0-.35.2-.65.59-.9.39-.25,1.03-.37,1.91-.37.61,0,1.25.07,1.91.2.67.14,1.3.4,1.91.78l1.35-2.74c-.59-.34-1.32-.6-2.17-.79-.85-.19-1.73-.29-2.62-.29-1.25,0-2.37.18-3.36.53-.99.35-1.76.87-2.31,1.54-.55.67-.83,1.5-.83,2.48,0,.72.16,1.3.49,1.75.33.44.75.78,1.28,1.01.52.23,1.08.41,1.66.54.59.13,1.14.24,1.65.34.51.1.94.22,1.28.37.34.15.51.38.51.69,0,.39-.2.69-.6.92-.4.23-1.04.34-1.93.34-.82,0-1.63-.11-2.44-.34-.81-.22-1.5-.52-2.06-.89l-1.44,2.72c.55.39,1.32.71,2.32.96,1,.26,2.07.39,3.21.39,1.25,0,2.37-.17,3.35-.51.98-.34,1.75-.85,2.32-1.53.57-.68.85-1.51.85-2.49,0-.72-.16-1.3-.49-1.72-.33-.43-.75-.75-1.26-.99Z"/><path class="cls-6" d="m37.06,63.03c.33,1.98-6.78,2.02-10.12,5.61-4.86-2.14-11.68.04-12.01-1.92l-1.31-7.87,22.13-3.69,1.31,7.87Z"/><rect class="cls-2" x="39.74" y="52.81" width=".41" height="5.1" transform="translate(4.98 -3.27) rotate(5)"/><polygon class="cls-5" points="43.05 51.49 25.08 61.68 4.62 58.84 22.59 48.65 43.05 51.49"/><circle class="cls-5" cx="39.62" cy="59.14" r="1.56"/><rect class="cls-3" x="34.63" y="105.07" width="96.51" height="2.8"/></g></svg>